<?xml version="1.0" standalone="no"?>
<!DOCTYPE svg PUBLIC "-//W3C//DTD SVG 20010904//EN"
 "http://www.w3.org/TR/2001/REC-SVG-20010904/DTD/svg10.dtd">
<svg version="1.0" xmlns="http://www.w3.org/2000/svg"
 width="248.000000pt" height="248.000000pt" viewBox="0 0 248.000000 248.000000"
 preserveAspectRatio="xMidYMid meet">
<metadata>
Created by potrace 1.14, written by Peter Selinger 2001-2017
</metadata>
<g transform="translate(0.000000,248.000000) scale(0.100000,-0.100000)"
fill="#000000" stroke="none">
<path d="M750 1805 c-6 -8 -96 -336 -187 -685 -13 -52 -35 -133 -49 -180 -35
-122 -38 -116 58 -115 l81 0 12 40 c34 110 131 502 150 605 9 47 19 96 22 110
4 22 8 18 28 -30 41 -99 181 -432 244 -581 l61 -145 86 1 86 1 145 382 c80
210 149 379 153 377 4 -2 10 -29 14 -59 3 -30 38 -177 76 -328 39 -150 72
-282 75 -293 3 -11 9 -33 13 -50 l8 -30 85 0 c78 0 84 2 81 20 -4 22 -113 431
-137 510 -34 117 -115 426 -115 440 0 9 -10 15 -27 16 -29 1 -133 1 -145 0 -3
-1 -25 -49 -48 -108 -23 -60 -47 -121 -55 -138 -7 -16 -22 -55 -33 -85 -32
-88 -163 -423 -172 -439 -6 -11 -9 -9 -15 10 -9 30 -161 383 -257 599 l-73
164 -78 1 c-43 0 -82 -4 -87 -10z"/>
</g>
</svg>
