<svg width="220" height="75" viewBox="0 0 220 75" fill="none" xmlns="http://www.w3.org/2000/svg">
<rect width="220" height="75" fill="white"/>
<path d="M56.9205 42V35.4545H57.892V36.4773H57.9773C58.1136 36.1278 58.3338 35.8565 58.6378 35.6634C58.9418 35.4673 59.3068 35.3693 59.733 35.3693C60.1648 35.3693 60.5241 35.4673 60.8111 35.6634C61.1009 35.8565 61.3267 36.1278 61.4886 36.4773H61.5568C61.7244 36.1392 61.9759 35.8707 62.3111 35.6719C62.6463 35.4702 63.0483 35.3693 63.517 35.3693C64.1023 35.3693 64.581 35.5526 64.9531 35.919C65.3253 36.2827 65.5114 36.8494 65.5114 37.6193V42H64.5057V37.6193C64.5057 37.1364 64.3736 36.7912 64.1094 36.5838C63.8452 36.3764 63.5341 36.2727 63.1761 36.2727C62.7159 36.2727 62.3594 36.4119 62.1065 36.6903C61.8537 36.9659 61.7273 37.3153 61.7273 37.7386V42H60.7045V37.517C60.7045 37.1449 60.5838 36.8452 60.3423 36.6179C60.1009 36.3878 59.7898 36.2727 59.4091 36.2727C59.1477 36.2727 58.9034 36.3423 58.6761 36.4815C58.4517 36.6207 58.2699 36.8139 58.1307 37.0611C57.9943 37.3054 57.9261 37.5881 57.9261 37.9091V42H56.9205ZM67.3501 42V35.4545H68.3558V42H67.3501ZM67.8615 34.3636C67.6655 34.3636 67.4964 34.2969 67.3544 34.1634C67.2152 34.0298 67.1456 33.8693 67.1456 33.6818C67.1456 33.4943 67.2152 33.3338 67.3544 33.2003C67.4964 33.0668 67.6655 33 67.8615 33C68.0575 33 68.2251 33.0668 68.3643 33.2003C68.5064 33.3338 68.5774 33.4943 68.5774 33.6818C68.5774 33.8693 68.5064 34.0298 68.3643 34.1634C68.2251 34.2969 68.0575 34.3636 67.8615 34.3636ZM72.8569 42.1364C72.2433 42.1364 71.7148 41.9915 71.2717 41.7017C70.8285 41.4119 70.4876 41.0128 70.2489 40.5043C70.0103 39.9957 69.891 39.4148 69.891 38.7614C69.891 38.0966 70.0131 37.5099 70.2575 37.0014C70.5046 36.4901 70.8484 36.0909 71.2887 35.804C71.7319 35.5142 72.2489 35.3693 72.8398 35.3693C73.3001 35.3693 73.7148 35.4545 74.0842 35.625C74.4535 35.7955 74.756 36.0341 74.9918 36.3409C75.2276 36.6477 75.3739 37.0057 75.4308 37.4148H74.4251C74.3484 37.1165 74.1779 36.8523 73.9137 36.6222C73.6523 36.3892 73.3001 36.2727 72.8569 36.2727C72.4648 36.2727 72.1211 36.375 71.8256 36.5795C71.533 36.7812 71.3043 37.0668 71.1396 37.4361C70.9776 37.8026 70.8967 38.233 70.8967 38.7273C70.8967 39.233 70.9762 39.6733 71.1353 40.0483C71.2972 40.4233 71.5245 40.7145 71.8171 40.9219C72.1126 41.1293 72.4592 41.233 72.8569 41.233C73.1183 41.233 73.3555 41.1875 73.5685 41.0966C73.7816 41.0057 73.962 40.875 74.1097 40.7045C74.2575 40.5341 74.3626 40.3295 74.4251 40.0909H75.4308C75.3739 40.4773 75.2333 40.8253 75.0089 41.1349C74.7873 41.4418 74.4933 41.6861 74.1268 41.8679C73.7631 42.0469 73.3398 42.1364 72.8569 42.1364ZM77.9066 38.0625V42H76.9009V33.2727H77.9066V36.4773H77.9918C78.1452 36.1392 78.3754 35.8707 78.6822 35.6719C78.9918 35.4702 79.4038 35.3693 79.918 35.3693C80.364 35.3693 80.7546 35.4588 81.0898 35.6378C81.4251 35.8139 81.685 36.0852 81.8697 36.4517C82.0572 36.8153 82.1509 37.2784 82.1509 37.8409V42H81.1452V37.9091C81.1452 37.3892 81.0103 36.9872 80.7404 36.7031C80.4734 36.4162 80.1026 36.2727 79.6282 36.2727C79.2987 36.2727 79.0032 36.3423 78.7418 36.4815C78.4833 36.6207 78.2788 36.8239 78.1282 37.0909C77.9805 37.358 77.9066 37.6818 77.9066 38.0625ZM85.9169 42.1534C85.5021 42.1534 85.1257 42.0753 84.7876 41.919C84.4496 41.7599 84.1811 41.5312 83.9822 41.233C83.7834 40.9318 83.6839 40.5682 83.6839 40.142C83.6839 39.767 83.7578 39.4631 83.9055 39.2301C84.0533 38.9943 84.2507 38.8097 84.4979 38.6761C84.745 38.5426 85.0178 38.4432 85.3161 38.3778C85.6172 38.3097 85.9197 38.2557 86.2237 38.2159C86.6214 38.1648 86.9439 38.1264 87.1911 38.1009C87.4411 38.0724 87.6229 38.0256 87.7365 37.9602C87.853 37.8949 87.9112 37.7812 87.9112 37.6193V37.5852C87.9112 37.1648 87.7962 36.8381 87.5661 36.6051C87.3388 36.3722 86.9936 36.2557 86.5305 36.2557C86.0504 36.2557 85.674 36.3608 85.4013 36.571C85.1286 36.7812 84.9368 37.0057 84.826 37.2443L83.8714 36.9034C84.0419 36.5057 84.2692 36.196 84.5533 35.9744C84.8402 35.75 85.1527 35.5937 85.4908 35.5057C85.8317 35.4148 86.1669 35.3693 86.4964 35.3693C86.7067 35.3693 86.9482 35.3949 87.2209 35.446C87.4964 35.4943 87.7621 35.5952 88.0178 35.7486C88.2763 35.902 88.4908 36.1335 88.6612 36.4432C88.8317 36.7528 88.9169 37.1676 88.9169 37.6875V42H87.9112V41.1136H87.8601C87.7919 41.2557 87.6783 41.4077 87.5192 41.5696C87.3601 41.7315 87.1484 41.8693 86.8842 41.983C86.62 42.0966 86.2976 42.1534 85.9169 42.1534ZM86.0703 41.25C86.468 41.25 86.8033 41.1719 87.076 41.0156C87.3516 40.8594 87.5589 40.6577 87.6982 40.4105C87.8402 40.1634 87.9112 39.9034 87.9112 39.6307V38.7102C87.8686 38.7614 87.7749 38.8082 87.63 38.8509C87.4879 38.8906 87.3232 38.9261 87.1357 38.9574C86.951 38.9858 86.7706 39.0114 86.5945 39.0341C86.4212 39.054 86.2805 39.071 86.1726 39.0852C85.9112 39.1193 85.6669 39.1747 85.4396 39.2514C85.2152 39.3253 85.0334 39.4375 84.8942 39.5881C84.7578 39.7358 84.6896 39.9375 84.6896 40.1932C84.6896 40.5426 84.8189 40.8068 85.0774 40.9858C85.3388 41.1619 85.6697 41.25 86.0703 41.25ZM93.4968 42.1364C92.8661 42.1364 92.3221 41.9972 91.8647 41.7188C91.4102 41.4375 91.0593 41.0455 90.8121 40.5426C90.5678 40.0369 90.4457 39.4489 90.4457 38.7784C90.4457 38.108 90.5678 37.517 90.8121 37.0057C91.0593 36.4915 91.4031 36.0909 91.8434 35.804C92.2866 35.5142 92.8036 35.3693 93.3945 35.3693C93.7354 35.3693 94.0721 35.4261 94.4045 35.5398C94.7369 35.6534 95.0394 35.8381 95.3121 36.0938C95.5849 36.3466 95.8022 36.6818 95.9641 37.0994C96.1261 37.517 96.207 38.0312 96.207 38.642V39.0682H91.1616V38.1989H95.1843C95.1843 37.8295 95.1104 37.5 94.9627 37.2102C94.8178 36.9205 94.6104 36.6918 94.3406 36.5241C94.0735 36.3565 93.7582 36.2727 93.3945 36.2727C92.994 36.2727 92.6474 36.3722 92.3548 36.571C92.065 36.767 91.842 37.0227 91.6857 37.3381C91.5295 37.6534 91.4513 37.9915 91.4513 38.3523V38.9318C91.4513 39.4261 91.5366 39.8452 91.707 40.1889C91.8803 40.5298 92.1204 40.7898 92.4272 40.9688C92.734 41.1449 93.0906 41.233 93.4968 41.233C93.761 41.233 93.9996 41.196 94.2127 41.1222C94.4286 41.0455 94.6147 40.9318 94.771 40.7812C94.9272 40.6278 95.0479 40.4375 95.1332 40.2102L96.1048 40.483C96.0025 40.8125 95.8306 41.1023 95.5891 41.3523C95.3477 41.5994 95.0494 41.7926 94.6942 41.9318C94.3391 42.0682 93.94 42.1364 93.4968 42.1364ZM98.7425 33.2727V42H97.7369V33.2727H98.7425ZM103.244 42.1364C102.653 42.1364 102.134 41.9957 101.688 41.7145C101.245 41.4332 100.898 41.0398 100.648 40.5341C100.401 40.0284 100.278 39.4375 100.278 38.7614C100.278 38.0795 100.401 37.4844 100.648 36.9759C100.898 36.4673 101.245 36.0724 101.688 35.7912C102.134 35.5099 102.653 35.3693 103.244 35.3693C103.835 35.3693 104.352 35.5099 104.795 35.7912C105.241 36.0724 105.587 36.4673 105.835 36.9759C106.085 37.4844 106.21 38.0795 106.21 38.7614C106.21 39.4375 106.085 40.0284 105.835 40.5341C105.587 41.0398 105.241 41.4332 104.795 41.7145C104.352 41.9957 103.835 42.1364 103.244 42.1364ZM103.244 41.233C103.692 41.233 104.062 41.1179 104.352 40.8878C104.641 40.6577 104.856 40.3551 104.995 39.9801C105.134 39.6051 105.204 39.1989 105.204 38.7614C105.204 38.3239 105.134 37.9162 104.995 37.5384C104.856 37.1605 104.641 36.8551 104.352 36.6222C104.062 36.3892 103.692 36.2727 103.244 36.2727C102.795 36.2727 102.425 36.3892 102.136 36.6222C101.846 36.8551 101.631 37.1605 101.492 37.5384C101.353 37.9162 101.283 38.3239 101.283 38.7614C101.283 39.1989 101.353 39.6051 101.492 39.9801C101.631 40.3551 101.846 40.6577 102.136 40.8878C102.425 41.1179 102.795 41.233 103.244 41.233ZM107.745 42V35.4545H108.716V36.4432H108.784C108.904 36.1193 109.12 35.8565 109.432 35.6548C109.745 35.4531 110.097 35.3523 110.489 35.3523C110.563 35.3523 110.655 35.3537 110.766 35.3565C110.877 35.3594 110.961 35.3636 111.017 35.3693V36.392C110.983 36.3835 110.905 36.3707 110.783 36.3537C110.664 36.3338 110.537 36.3239 110.404 36.3239C110.086 36.3239 109.801 36.3906 109.551 36.5241C109.304 36.6548 109.108 36.8366 108.963 37.0696C108.821 37.2997 108.75 37.5625 108.75 37.858V42H107.745ZM114.136 42.1534C113.721 42.1534 113.344 42.0753 113.006 41.919C112.668 41.7599 112.4 41.5312 112.201 41.233C112.002 40.9318 111.903 40.5682 111.903 40.142C111.903 39.767 111.977 39.4631 112.124 39.2301C112.272 38.9943 112.469 38.8097 112.717 38.6761C112.964 38.5426 113.237 38.4432 113.535 38.3778C113.836 38.3097 114.138 38.2557 114.442 38.2159C114.84 38.1648 115.163 38.1264 115.41 38.1009C115.66 38.0724 115.842 38.0256 115.955 37.9602C116.072 37.8949 116.13 37.7812 116.13 37.6193V37.5852C116.13 37.1648 116.015 36.8381 115.785 36.6051C115.558 36.3722 115.212 36.2557 114.749 36.2557C114.269 36.2557 113.893 36.3608 113.62 36.571C113.347 36.7812 113.156 37.0057 113.045 37.2443L112.09 36.9034C112.261 36.5057 112.488 36.196 112.772 35.9744C113.059 35.75 113.371 35.5937 113.71 35.5057C114.05 35.4148 114.386 35.3693 114.715 35.3693C114.925 35.3693 115.167 35.3949 115.44 35.446C115.715 35.4943 115.981 35.5952 116.237 35.7486C116.495 35.902 116.71 36.1335 116.88 36.4432C117.05 36.7528 117.136 37.1676 117.136 37.6875V42H116.13V41.1136H116.079C116.011 41.2557 115.897 41.4077 115.738 41.5696C115.579 41.7315 115.367 41.8693 115.103 41.983C114.839 42.0966 114.516 42.1534 114.136 42.1534ZM114.289 41.25C114.687 41.25 115.022 41.1719 115.295 41.0156C115.57 40.8594 115.778 40.6577 115.917 40.4105C116.059 40.1634 116.13 39.9034 116.13 39.6307V38.7102C116.087 38.7614 115.994 38.8082 115.849 38.8509C115.707 38.8906 115.542 38.9261 115.354 38.9574C115.17 38.9858 114.989 39.0114 114.813 39.0341C114.64 39.054 114.499 39.071 114.391 39.0852C114.13 39.1193 113.886 39.1747 113.658 39.2514C113.434 39.3253 113.252 39.4375 113.113 39.5881C112.977 39.7358 112.908 39.9375 112.908 40.1932C112.908 40.5426 113.038 40.8068 113.296 40.9858C113.558 41.1619 113.888 41.25 114.289 41.25ZM120.454 42L118.46 35.4545H119.517L120.931 40.4659H121L122.397 35.4545H123.471L124.852 40.4489H124.92L126.335 35.4545H127.392L125.397 42H124.409L122.977 36.9716H122.875L121.443 42H120.454ZM131.243 42.1364C130.612 42.1364 130.068 41.9972 129.611 41.7188C129.156 41.4375 128.805 41.0455 128.558 40.5426C128.314 40.0369 128.192 39.4489 128.192 38.7784C128.192 38.108 128.314 37.517 128.558 37.0057C128.805 36.4915 129.149 36.0909 129.589 35.804C130.033 35.5142 130.55 35.3693 131.141 35.3693C131.482 35.3693 131.818 35.4261 132.151 35.5398C132.483 35.6534 132.786 35.8381 133.058 36.0938C133.331 36.3466 133.548 36.6818 133.71 37.0994C133.872 37.517 133.953 38.0312 133.953 38.642V39.0682H128.908V38.1989H132.93C132.93 37.8295 132.857 37.5 132.709 37.2102C132.564 36.9205 132.357 36.6918 132.087 36.5241C131.82 36.3565 131.504 36.2727 131.141 36.2727C130.74 36.2727 130.393 36.3722 130.101 36.571C129.811 36.767 129.588 37.0227 129.432 37.3381C129.276 37.6534 129.197 37.9915 129.197 38.3523V38.9318C129.197 39.4261 129.283 39.8452 129.453 40.1889C129.626 40.5298 129.866 40.7898 130.173 40.9688C130.48 41.1449 130.837 41.233 131.243 41.233C131.507 41.233 131.746 41.196 131.959 41.1222C132.175 41.0455 132.361 40.9318 132.517 40.7812C132.673 40.6278 132.794 40.4375 132.879 40.2102L133.851 40.483C133.749 40.8125 133.577 41.1023 133.335 41.3523C133.094 41.5994 132.795 41.7926 132.44 41.9318C132.085 42.0682 131.686 42.1364 131.243 42.1364ZM136.216 42.0682C136.006 42.0682 135.825 41.9929 135.675 41.8423C135.524 41.6918 135.449 41.5114 135.449 41.3011C135.449 41.0909 135.524 40.9105 135.675 40.7599C135.825 40.6094 136.006 40.5341 136.216 40.5341C136.426 40.5341 136.607 40.6094 136.757 40.7599C136.908 40.9105 136.983 41.0909 136.983 41.3011C136.983 41.4403 136.947 41.5682 136.876 41.6847C136.808 41.8011 136.716 41.8949 136.599 41.9659C136.486 42.0341 136.358 42.0682 136.216 42.0682ZM141.447 42.1364C140.833 42.1364 140.305 41.9915 139.862 41.7017C139.418 41.4119 139.077 41.0128 138.839 40.5043C138.6 39.9957 138.481 39.4148 138.481 38.7614C138.481 38.0966 138.603 37.5099 138.847 37.0014C139.094 36.4901 139.438 36.0909 139.879 35.804C140.322 35.5142 140.839 35.3693 141.43 35.3693C141.89 35.3693 142.305 35.4545 142.674 35.625C143.043 35.7955 143.346 36.0341 143.582 36.3409C143.817 36.6477 143.964 37.0057 144.021 37.4148H143.015C142.938 37.1165 142.768 36.8523 142.504 36.6222C142.242 36.3892 141.89 36.2727 141.447 36.2727C141.055 36.2727 140.711 36.375 140.415 36.5795C140.123 36.7812 139.894 37.0668 139.729 37.4361C139.567 37.8026 139.487 38.233 139.487 38.7273C139.487 39.233 139.566 39.6733 139.725 40.0483C139.887 40.4233 140.114 40.7145 140.407 40.9219C140.702 41.1293 141.049 41.233 141.447 41.233C141.708 41.233 141.945 41.1875 142.158 41.0966C142.371 41.0057 142.552 40.875 142.7 40.7045C142.847 40.5341 142.952 40.3295 143.015 40.0909H144.021C143.964 40.4773 143.823 40.8253 143.599 41.1349C143.377 41.4418 143.083 41.6861 142.717 41.8679C142.353 42.0469 141.93 42.1364 141.447 42.1364ZM148.15 42.1364C147.559 42.1364 147.04 41.9957 146.594 41.7145C146.151 41.4332 145.805 41.0398 145.555 40.5341C145.308 40.0284 145.184 39.4375 145.184 38.7614C145.184 38.0795 145.308 37.4844 145.555 36.9759C145.805 36.4673 146.151 36.0724 146.594 35.7912C147.04 35.5099 147.559 35.3693 148.15 35.3693C148.741 35.3693 149.258 35.5099 149.701 35.7912C150.147 36.0724 150.494 36.4673 150.741 36.9759C150.991 37.4844 151.116 38.0795 151.116 38.7614C151.116 39.4375 150.991 40.0284 150.741 40.5341C150.494 41.0398 150.147 41.4332 149.701 41.7145C149.258 41.9957 148.741 42.1364 148.15 42.1364ZM148.15 41.233C148.599 41.233 148.968 41.1179 149.258 40.8878C149.548 40.6577 149.762 40.3551 149.901 39.9801C150.04 39.6051 150.11 39.1989 150.11 38.7614C150.11 38.3239 150.04 37.9162 149.901 37.5384C149.762 37.1605 149.548 36.8551 149.258 36.6222C148.968 36.3892 148.599 36.2727 148.15 36.2727C147.701 36.2727 147.332 36.3892 147.042 36.6222C146.752 36.8551 146.538 37.1605 146.398 37.5384C146.259 37.9162 146.19 38.3239 146.19 38.7614C146.19 39.1989 146.259 39.6051 146.398 39.9801C146.538 40.3551 146.752 40.6577 147.042 40.8878C147.332 41.1179 147.701 41.233 148.15 41.233ZM152.651 42V35.4545H153.623V36.4773H153.708C153.844 36.1278 154.064 35.8565 154.368 35.6634C154.672 35.4673 155.037 35.3693 155.463 35.3693C155.895 35.3693 156.255 35.4673 156.542 35.6634C156.831 35.8565 157.057 36.1278 157.219 36.4773H157.287C157.455 36.1392 157.706 35.8707 158.042 35.6719C158.377 35.4702 158.779 35.3693 159.248 35.3693C159.833 35.3693 160.311 35.5526 160.684 35.919C161.056 36.2827 161.242 36.8494 161.242 37.6193V42H160.236V37.6193C160.236 37.1364 160.104 36.7912 159.84 36.5838C159.576 36.3764 159.265 36.2727 158.907 36.2727C158.446 36.2727 158.09 36.4119 157.837 36.6903C157.584 36.9659 157.458 37.3153 157.458 37.7386V42H156.435V37.517C156.435 37.1449 156.314 36.8452 156.073 36.6179C155.831 36.3878 155.52 36.2727 155.14 36.2727C154.878 36.2727 154.634 36.3423 154.407 36.4815C154.182 36.6207 154 36.8139 153.861 37.0611C153.725 37.3054 153.657 37.5881 153.657 37.9091V42H152.651Z" fill="black"/>
</svg>
